<svg width="25" height="25" viewBox="0 0 25 25" fill="none" xmlns="http://www.w3.org/2000/svg">
<path d="M13.1641 12.4999L17.9114 7.75264C18.0947 7.56931 18.0947 7.27206 17.9114 7.08873C17.728 6.9054 17.4308 6.9054 17.2474 7.08873L12.5001 11.836L7.7528 7.08867C7.56947 6.90534 7.27223 6.90534 7.0889 7.08867C6.9055 7.27201 6.9055 7.56925 7.0889 7.75258L11.8361 12.4999L7.08884 17.2472C6.90545 17.4306 6.90545 17.7278 7.08884 17.9112C7.1805 18.0029 7.30063 18.0487 7.42082 18.0487C7.54101 18.0487 7.66114 18.0029 7.7528 17.9112L12.5001 13.1639L17.2474 17.9112C17.3391 18.0029 17.4592 18.0487 17.5794 18.0487C17.6996 18.0487 17.8197 18.0029 17.9114 17.9112C18.0947 17.7278 18.0947 17.4306 17.9114 17.2472L13.1641 12.4999Z" fill="white"/>
<path d="M12.5 0.938967C14.0611 0.938967 15.5751 1.24454 16.9998 1.84712C18.3763 2.42934 19.6129 3.26309 20.6749 4.32512C21.737 5.38721 22.5707 6.62365 23.1529 8.00023C23.7555 9.42494 24.061 10.9388 24.061 12.5C24.061 14.0611 23.7555 15.5751 23.1529 16.9998C22.5706 18.3763 21.7369 19.6129 20.6748 20.6749C19.6128 21.737 18.3763 22.5707 16.9998 23.1529C15.5751 23.7555 14.0611 24.061 12.5 24.061C10.9388 24.061 9.42494 23.7555 8.00023 23.1529C6.62365 22.5706 5.38721 21.7369 4.32512 20.6748C3.26309 19.6128 2.42934 18.3763 1.84712 16.9998C1.24454 15.5751 0.938967 14.0611 0.938967 12.5C0.938967 10.9388 1.24454 9.42494 1.84712 8.00023C2.42934 6.62365 3.26309 5.38721 4.32512 4.32512C5.38721 3.26309 6.62365 2.42934 8.00023 1.84712C9.42494 1.24454 10.9388 0.938967 12.5 0.938967ZM12.5 0C5.59642 0 0 5.59642 0 12.5C0 19.4036 5.59642 25 12.5 25C19.4036 25 25 19.4036 25 12.5C25 5.59642 19.4036 0 12.5 0Z" fill="white"/>
</svg>
