<svg width="68" height="78" viewBox="0 0 68 78" fill="none" xmlns="http://www.w3.org/2000/svg">
<path d="M47.6414 50.4758L48.4208 51.1024L47.6414 50.4758L47.638 50.48L47.6379 50.4802L47.6274 50.4933C46.8574 51.4507 46.0042 52.5118 45.276 53.5992C44.5478 54.6866 43.9009 55.8629 43.5876 57.0602L43.5857 57.0677L43.5843 57.0734C43.5842 57.0737 43.5841 57.074 43.584 57.0743C43.5494 57.2147 43.4453 57.7339 43.4623 59.25L43.4623 59.2504C43.4644 59.4332 43.4729 59.6139 43.4804 59.7736L43.4808 59.7812L43.4823 59.8135C43.4823 59.8135 43.4823 59.8136 43.4823 59.8136C43.5309 60.8515 43.5444 61.9298 42.812 62.7445L42.8119 62.7446C42.2973 63.3172 41.4621 63.6864 40.022 63.6864H29.692C28.3973 63.6864 27.5879 63.3352 27.0368 62.7435L26.305 63.425L27.0368 62.7434C26.1942 61.8387 26.1717 60.6047 26.1886 59.3401L26.1886 59.3387L26.1912 59.1239L26.1912 59.1219C26.2064 57.6077 26.1067 57.067 26.0622 56.8944C25.4713 54.6003 23.8464 52.6046 22.3143 50.723L22.2358 50.6266L22.2356 50.6264L22.2241 50.6122C22.2241 50.6122 22.2241 50.6121 22.2241 50.6121C21.6918 49.9579 21.158 49.3014 20.6643 48.6381L20.6642 48.6379C18.1208 45.2219 16.7738 41.1179 16.7738 36.7596C16.7738 26.1068 24.9478 17.5374 34.8747 17.5374C44.8002 17.5374 52.973 26.1069 52.9727 36.7598C52.9727 41.12 51.6253 45.2248 49.081 48.6412C48.6384 49.2353 48.1613 49.8291 47.6414 50.4758Z" stroke="white" stroke-width="2"/>
<path d="M30.123 67.5264H39.6243C41.0698 67.5264 42.3437 68.7907 42.3437 70.4642V73.4832C42.3437 75.1567 41.0698 76.421 39.6243 76.421H30.123C28.6775 76.421 27.4037 75.1567 27.4037 73.4832V70.4642C27.4037 68.7907 28.6775 67.5264 30.123 67.5264Z" stroke="white" stroke-width="2"/>
<ellipse cx="30.6564" cy="48.1343" rx="1.51993" ry="1.6091" fill="white"/>
<ellipse cx="39.1679" cy="48.1343" rx="1.51993" ry="1.6091" fill="white"/>
<line x1="35.6082" y1="53.3188" x2="35.6082" y2="63.5487" stroke="white" stroke-width="2" stroke-linecap="round" stroke-linejoin="round"/>
<line x1="1" y1="-1" x2="5.26059" y2="-1" transform="matrix(0.686671 -0.726968 0.686671 0.726968 35.2162 53.0068)" stroke="white" stroke-width="2" stroke-linecap="round" stroke-linejoin="round"/>
<line x1="1" y1="-1" x2="5.26059" y2="-1" transform="matrix(0.686671 0.726968 -0.686671 0.726968 30.3524 48.4568)" stroke="white" stroke-width="2" stroke-linecap="round" stroke-linejoin="round"/>
<path d="M32.914 1V9.64197" stroke="#FE12F4" stroke-width="2" stroke-linecap="round" stroke-linejoin="round"/>
<path d="M58.2589 8.53906L52.2202 14.6402" stroke="#FE12F4" stroke-width="2" stroke-linecap="round" stroke-linejoin="round"/>
<path d="M67 29.6667H66.9968L59.2235 29.6801" stroke="#FE12F4" stroke-width="2" stroke-linecap="round" stroke-linejoin="round"/>
<path d="M16.5757 14.0793L10.537 7.97803" stroke="#FE12F4" stroke-width="2" stroke-linecap="round" stroke-linejoin="round"/>
<path d="M8.77626 29.6801L1.00318 29.6667H1" stroke="#FE12F4" stroke-width="2" stroke-linecap="round" stroke-linejoin="round"/>
</svg>
