<svg width="111" height="111" viewBox="0 0 111 111" fill="none" xmlns="http://www.w3.org/2000/svg">
<path d="M49.5236 22.0939C51.3274 16.199 59.6726 16.199 61.4764 22.0939L63.9737 30.2549C65.1643 34.1457 69.1612 36.4533 73.126 35.539L81.4423 33.6212C87.4494 32.2359 91.622 39.463 87.4188 43.9727L81.5998 50.2159C78.8255 53.1924 78.8255 57.8076 81.5998 60.7841L87.4188 67.0273C91.622 71.5369 87.4494 78.7641 81.4423 77.3788L73.126 75.461C69.1612 74.5467 65.1643 76.8543 63.9737 80.7451L61.4764 88.9061C59.6726 94.801 51.3274 94.801 49.5236 88.9061L47.0263 80.7451C45.8357 76.8543 41.8388 74.5467 37.874 75.461L29.5577 77.3788C23.5506 78.7641 19.378 71.537 23.5812 67.0273L29.4002 60.7841C32.1745 57.8076 32.1745 53.1924 29.4002 50.2159L23.5812 43.9727C19.378 39.463 23.5506 32.2359 29.5577 33.6212L37.874 35.539C41.8388 36.4533 45.8357 34.1457 47.0263 30.2549L49.5236 22.0939Z" stroke="white" stroke-width="1.5"/>
<circle cx="55.1275" cy="55.8725" r="17.8742" stroke="#FE12F4" stroke-width="1.5" stroke-dasharray="5 5"/>
<path d="M46.9329 55.8725L56.0804 63.3222L63.3221 48.4229" stroke="white" stroke-width="1.5"/>
<circle cx="47.3054" cy="55.5001" r="1.86242" fill="white"/>
<circle cx="62.9497" cy="48.0504" r="1.86242" fill="white"/>
</svg>
